<svg width="64" height="64" viewBox="0 0 64 64" fill="none" xmlns="http://www.w3.org/2000/svg">
<circle cx="32" cy="32" r="32" fill="white"/>
<path d="M9.77579 42V34.98L1.14379 23.28H4.83579L11.3618 31.496L17.8358 23.28H21.5798L12.9218 35.006V42H9.77579ZM26.2614 42C25.6201 42 25.0307 41.844 24.4934 41.532C23.9734 41.22 23.5574 40.7953 23.2454 40.258C22.9334 39.7207 22.7774 39.1313 22.7774 38.49V37.242H25.8974V38.386C25.8974 38.5247 25.9407 38.6373 26.0274 38.724C26.1141 38.8107 26.2267 38.854 26.3654 38.854H37.8574C37.9961 38.854 38.1087 38.8107 38.1954 38.724C38.2994 38.6373 38.3514 38.5247 38.3514 38.386V34.668C38.3514 34.5467 38.2994 34.4427 38.1954 34.356C38.1087 34.252 37.9961 34.2 37.8574 34.2H26.2614C25.6201 34.2 25.0307 34.044 24.4934 33.732C23.9734 33.42 23.5574 33.004 23.2454 32.484C22.9334 31.9467 22.7774 31.3573 22.7774 30.716V26.79C22.7774 26.1487 22.9334 25.5593 23.2454 25.022C23.5574 24.4847 23.9734 24.06 24.4934 23.748C25.0307 23.436 25.6201 23.28 26.2614 23.28H37.9874C38.6287 23.28 39.2094 23.436 39.7294 23.748C40.2667 24.06 40.6914 24.4847 41.0034 25.022C41.3327 25.5593 41.4974 26.1487 41.4974 26.79V28.038H38.3514V26.894C38.3514 26.7553 38.2994 26.6427 38.1954 26.556C38.1087 26.4693 37.9961 26.426 37.8574 26.426H26.3654C26.2267 26.426 26.1141 26.4693 26.0274 26.556C25.9407 26.6427 25.8974 26.7553 25.8974 26.894V30.612C25.8974 30.7333 25.9407 30.846 26.0274 30.95C26.1141 31.0367 26.2267 31.08 26.3654 31.08H37.9874C38.6287 31.08 39.2094 31.236 39.7294 31.548C40.2667 31.86 40.6914 32.2847 41.0034 32.822C41.3327 33.342 41.4974 33.9227 41.4974 34.564V38.49C41.4974 39.1313 41.3327 39.7207 41.0034 40.258C40.6914 40.7953 40.2667 41.22 39.7294 41.532C39.2094 41.844 38.6287 42 37.9874 42H26.2614ZM44.3365 42V23.254H47.4565V38.854H63.0565V42H44.3365Z" fill="#266144"/>
</svg>
